<?xml version="1.0" encoding="UTF-8"?>
<svg width="82px" height="60px" viewBox="0 0 82 60" version="1.1" xmlns="http://www.w3.org/2000/svg" xmlns:xlink="http://www.w3.org/1999/xlink">
    <!-- Generator: sketchtool 52.1 (67048) - http://www.bohemiancoding.com/sketch -->
    <title>D728E832-DE40-4491-ADAE-75129C5226FD</title>
    <desc>Created with sketchtool.</desc>
    <g id="Index" stroke="none" stroke-width="1" fill="none" fill-rule="evenodd">
        <g id="Desktop-HD-Copy" transform="translate(-34.000000, -34.000000)" fill="#FEFEFE">
            <g id="logo" transform="translate(34.000000, 34.000000)">
                <path d="M28.0729181,48.0105975 C27.9832016,47.4755437 27.8135396,47.0254613 27.4573382,46.6422053 C27.035848,46.2018592 26.7400499,45.6769843 26.4726768,45.1441434 C26.2297314,44.663967 26.0351975,44.1594498 25.8282276,43.6628987 C25.4880153,42.8313305 25.1518003,41.9953367 24.8195826,41.1597855 C24.6938905,40.8407005 24.6170541,40.4977173 24.4673784,40.191024 C24.2319835,39.7188137 24.0578801,39.2262456 23.8677876,38.7416436 C23.6852455,38.2773993 23.3814528,37.8414788 22.9883877,37.5024786 C22.4536415,37.0422174 21.9308871,36.5615984 21.3757103,36.1296609 C20.9142475,35.770303 20.6424329,35.3020757 20.4114794,34.7935755 C20.3386402,34.6320415 20.265801,34.4665245 20.1645368,34.3169396 C19.8811746,33.9013768 19.7430466,33.4247408 19.580935,32.9604965 C19.4148262,32.4803201 19.2691478,31.991735 19.1150307,31.5075756 C19.0381943,31.2650533 18.9733496,31.0150075 18.8760827,30.7808939 C18.7224098,30.4091444 18.5318731,30.0502291 18.390192,29.6744966 C18.2804891,29.3837354 18.2280804,29.069076 18.138808,28.7663657 C18.0779606,28.5521672 18.025552,28.3344282 17.9322823,28.1326213 C17.8065903,27.8458431 17.6324868,27.5834057 17.5067948,27.2966275 C17.4419502,27.1514682 17.4419502,26.9779851 17.4055306,26.8164511 C17.3446832,26.5540137 17.3162582,26.2796272 17.2149939,26.0371049 C17.0288987,25.5852522 16.9556154,25.1125993 16.8787789,24.6364059 C16.8503539,24.4465481 16.7735174,24.265099 16.7206646,24.0792242 C16.6802477,23.9221158 16.627839,23.7645648 16.6034113,23.6030308 C16.5669917,23.3808663 16.5385666,23.1547187 16.5265748,22.9329967 C16.5141389,22.706849 16.4293079,22.5130082 16.2467658,22.3917471 C16.0282482,22.2465878 15.9873872,22.0368149 15.9589621,21.8106672 C15.8821257,21.2132127 16.04024,20.6843548 16.4048801,20.2037358 C17.0528823,19.3562355 17.676901,18.4923605 18.3333419,17.6523837 C18.6371346,17.2607191 18.9937802,16.9097698 19.3379897,16.554395 C19.580935,16.3083323 19.7554826,16.3242644 19.9904334,16.5703272 C20.0024252,16.5827188 20.0148612,16.5906849 20.0228557,16.602634 C20.6912885,17.7050482 21.7687755,18.4073892 22.6641645,19.2832133 C22.9803931,19.5943322 23.2397717,19.9293493 23.4014392,20.3449121 C23.6732537,21.031321 24.0903024,21.6048774 24.6739042,22.060713 C25.5044486,22.7108321 26.3145624,23.3848493 27.1491041,24.0230193 C27.6030166,24.3699854 28.0973459,24.6647297 28.5592529,24.9997468 C28.7253618,25.1210079 28.8590484,25.290508 28.9927349,25.452042 C29.2112525,25.7144794 29.3897973,26.0211727 29.6367399,26.2552864 C29.9445299,26.5460476 30.0258077,26.8770817 29.9689577,27.2767124 C29.9529686,27.4218717 29.9325381,27.5754396 29.9529686,27.720599 C29.9689577,27.8662009 30.114636,27.9184228 30.2203417,27.8175194 C30.3091699,27.728565 30.3780119,27.5997804 30.4148756,27.4785192 C30.4512952,27.3532751 30.4308647,27.2120988 30.4552925,27.0788885 C30.4877148,26.8850477 30.6009708,26.7115647 30.7875102,26.69519 C30.9047635,26.6872239 31.0668751,26.7960934 31.1561475,26.8969968 C31.4115288,27.1718259 31.6340437,27.4745362 31.8729917,27.7652974 C31.9418336,27.8418601 32.0191142,27.9224058 32.1039452,27.9790534 C32.1567981,28.0073771 32.2620596,28.0113602 32.3024764,27.9750703 C32.3433374,27.9427635 32.379757,27.8254854 32.351332,27.7852126 C32.2460705,27.6077464 32.1243757,27.4342634 31.9906892,27.2727294 C31.8609999,27.1191614 31.6056186,26.9213376 31.7597357,26.7761783 C31.91785,26.6265933 32.1243757,26.8930138 32.2864873,27.0142749 C32.5254354,27.1957241 32.7399557,27.4059396 32.9753506,27.5913718 C33.0806121,27.6723601 33.2142987,27.7489227 33.343988,27.6360702 C33.4532467,27.5471159 33.4328162,27.337343 33.2871379,27.2001497 C33.0766148,27.0063089 32.8456613,26.8368088 32.6266996,26.6509341 C32.5254354,26.5619797 32.4201739,26.473468 32.3473347,26.3641559 C32.2500678,26.2150135 32.3593265,26.0415305 32.5374272,26.0654286 C32.6671165,26.0818033 32.7968058,26.1380083 32.9145032,26.2026219 C33.1654431,26.3402577 33.4003939,26.4973661 33.6557752,26.6305764 C33.7126253,26.6589001 33.8258813,26.6305764 33.8867287,26.5903035 C33.9151538,26.5699458 33.9071592,26.4411612 33.8702955,26.3884966 C33.805895,26.2915762 33.7166226,26.2026219 33.6193556,26.1380083 C33.457244,26.0291388 33.2871379,25.9282354 33.1130344,25.839281 C32.59028,25.5648945 32.22564,25.132957 31.9094113,24.648355 C31.7757248,24.4465481 31.7881607,24.2487243 31.9298418,24.0632921 C32.0839589,23.8614853 32.2376318,23.6552528 32.4201739,23.4777867 C32.6022719,23.2963375 32.6386915,23.0901051 32.5982746,22.8559914 C32.561855,22.6541845 32.4446017,22.6019626 32.2784928,22.7148151 C32.2096509,22.7674796 32.1488035,22.8400593 32.0919534,22.9086559 C31.5936268,23.5344342 30.8927717,23.7402241 30.1390638,23.7765139 C29.9853909,23.780497 29.790857,23.6596784 29.681154,23.5344342 C29.2476721,23.0577983 28.8306233,22.5612472 28.4295636,22.052747 C28.267452,21.8469571 28.1497546,21.5964687 28.0245067,21.358372 C27.5586024,20.4502411 27.0602758,19.5620254 26.3958403,18.7747131 C26.2337287,18.5808723 26.0511866,18.3994231 25.8606499,18.2299231 C25.2286368,17.6687584 24.6454791,17.0713038 24.2364249,16.3202814 C24.1147302,16.0981168 23.9446241,15.900293 23.7785152,15.7108778 C23.5395671,15.4400317 23.2921804,15.1736112 23.0367991,14.9195824 C22.8751316,14.7580484 22.7938537,14.5761567 22.8142843,14.3544347 C22.8831262,13.6640428 22.6766004,13.0099407 22.5344752,12.3518556 C22.4576387,11.9885147 22.3079631,11.6375655 22.0321513,11.3587534 C21.9188952,11.2419178 21.817631,11.1126906 21.7123695,10.9794804 C21.3637185,10.5431173 20.9182447,10.2527987 20.3790571,10.1071968 C20.0592753,10.022668 19.7310548,9.95805444 19.4148262,9.86113404 C19.2771423,9.81687815 19.1474531,9.73190684 19.034197,9.63896946 C18.6859902,9.35219129 18.3537724,9.04549796 18.0091187,8.75916235 C17.8878681,8.65825891 17.8998599,8.56930457 18.0295492,8.53301474 C18.3293447,8.4440604 18.4670285,8.24225353 18.5438649,7.95945839 C18.5762873,7.8505889 18.6775515,7.76163456 18.7463934,7.66913974 C18.8436604,7.53592951 18.9369301,7.39873625 19.0461888,7.27349207 C19.159889,7.14426487 19.2731451,7.00308858 19.4148262,6.90616818 C19.690638,6.7163104 19.7919022,6.58310017 19.7066271,6.27198125 C19.5893737,5.84446934 19.7150657,5.51343528 20.0188584,5.21470801 C20.2293815,5.00449253 20.334643,4.75046371 20.3062179,4.4393448 C20.2862316,4.21718022 20.3062179,3.99147518 20.2942261,3.76532757 C20.2777929,3.42632744 20.3266484,3.1112255 20.5331742,2.82444732 C20.6060133,2.72354389 20.6184493,2.57440154 20.6264438,2.44517433 C20.6344384,2.3119641 20.5820297,2.17477084 20.5900243,2.04156061 C20.6100106,1.69016883 20.4563377,1.48437893 20.1361118,1.34718567 C19.9620083,1.27460601 19.8203272,1.12103807 19.6542184,1.02013463 C19.1638863,0.733356458 18.6899875,0.394356331 18.1632358,0.188566436 C17.6524732,-0.0172234581 17.0937434,-0.13051854 16.570989,0.257163068 C16.3560245,0.418697071 16.1050847,0.531549594 15.8661366,0.660776797 C15.0271535,1.12900413 14.6021102,1.8477198 14.6061075,2.79612355 C14.6101048,3.42632744 14.6585162,4.05608878 14.7273581,4.68142452 C14.7642218,5.01245859 14.7273581,5.31959447 14.5896743,5.60194706 C14.4075763,5.98166261 14.1641868,6.3286288 13.9820889,6.70436131 C13.690288,7.29739026 13.1759723,7.55186163 12.5803787,7.644799 C11.9119459,7.74968546 11.2310772,7.80633301 10.5586472,7.86696358 C9.97104813,7.91918553 9.37545455,7.89484479 8.80029147,7.99176519 C7.92133569,8.13736707 7.19205555,8.55292989 6.7341458,9.36458294 C6.49919501,9.78457135 6.28423058,10.2041172 6.2318219,10.7006683 C6.21538867,10.8622023 6.10612989,11.044094 5.98443516,11.1609296 C4.96779555,12.1420827 4.10482886,13.2723781 3.0189032,14.1889176 C2.76796332,14.4026736 2.62184081,14.7456568 2.44773739,15.040401 C2.21678388,15.4240996 2.02224995,15.8316963 1.7833019,16.2114119 C1.17971377,17.1761903 0.778654107,18.2175314 0.511280999,19.3155201 C0.397580808,19.7797644 0.231471934,20.2360426 0.105779925,20.6963039 C0.0493739701,20.8981108 0.00451569128,21.1083263 0.000518418914,21.3141161 C-0.00347885345,22.0970029 0.0169516498,22.8763491 0.0169516498,23.6596784 C0.0129543774,24.1562295 0.316747077,24.482838 0.664953915,24.7373093 C0.940765708,24.9351332 1.30540578,24.8745026 1.62119029,24.753684 C1.79929098,24.6850874 1.85614108,24.5195704 1.79129644,24.3376786 C1.74288503,24.1965023 1.68203766,24.0548835 1.59676252,23.9340649 C1.35381719,23.5826731 1.36181173,23.1954341 1.4022286,22.8037694 C1.4430896,22.4280369 1.49150101,22.3877641 1.86013835,22.3112014 C1.87657158,22.3072183 1.89256067,22.3072183 1.90499663,22.3032353 C2.22877569,22.2302131 2.31005357,22.0084911 2.1075251,21.7540197 C1.95740531,21.568145 1.71845725,21.3703211 1.71845725,21.1769229 C1.71845725,20.9910481 1.95740531,20.7932243 2.1075251,20.6157582 C2.50458749,20.163463 2.88121937,19.6912526 3.31470135,19.2792303 C3.93472271,18.6941674 4.32734369,17.9997924 4.62314184,17.2084971 C4.87052859,16.5380204 5.19475179,15.8923269 5.83076224,15.4643724 C6.21538867,15.205918 6.56803692,14.8992247 6.92468244,14.6004974 C7.17562232,14.3867415 7.40657584,14.1442192 7.65396258,13.9304632 C7.73479631,13.8578836 7.86848287,13.7649462 7.94531932,13.7848614 C8.02259992,13.8092021 8.05502224,13.9667531 8.10743092,14.0676565 C8.11542547,14.0796056 8.11542547,14.0959803 8.11542547,14.1119124 C8.13985325,14.7943382 8.40722635,15.3917928 8.74743865,15.9649066 C8.86913338,16.1706965 8.91798893,16.3729459 8.9015557,16.602634 C8.88556661,16.9057868 8.85714156,17.2084971 8.88556661,17.5072244 C8.95041125,18.1692925 8.75188006,18.7747131 8.54091291,19.3885423 C8.48850422,19.5416677 8.46007918,19.7071847 8.44764322,19.8687187 C8.42765686,20.0948663 8.4152209,20.3210139 8.42765686,20.5471616 C8.46407645,21.2371109 8.1114282,21.7420706 7.63752935,22.1859572 C7.54825693,22.2665029 7.43500088,22.3514742 7.40257856,22.4523777 C7.20404737,23.1104628 6.96509931,23.7605818 6.85584053,24.434599 C6.67329843,25.5728606 6.57603147,26.7274968 6.44234491,27.8741669 C6.40592532,28.1728942 6.36950573,28.4716214 6.34507795,28.7703487 C6.24381372,30.1914054 6.43834764,31.5841383 6.68973166,32.9768712 C6.82341821,33.715502 6.94866608,34.4545754 7.08634991,35.1932062 C7.15119455,35.5162742 7.22447787,35.8388997 7.31330615,36.1579846 C7.34972574,36.2792458 7.44299543,36.3920983 7.53226784,36.4850357 C7.71436581,36.6664848 7.80363822,36.8687343 7.79164641,37.1307291 C7.77921045,37.4135243 7.7712159,37.7042855 7.80363822,37.9866381 C7.86848287,38.6287911 7.66195713,39.2381947 7.58067925,39.85999 C7.48341229,40.6269446 7.52827057,41.3899161 7.55269835,42.1568707 C7.59711249,43.6305919 7.90889973,45.0755467 8.03059447,46.5452849 C8.0750086,47.098041 8.13585597,47.6472566 7.88891337,48.1840805 C7.69437945,48.608052 7.45543139,48.9470521 7.0015189,49.1408929 C6.62888429,49.2984439 6.28423058,49.5245915 5.95201284,49.7507391 C5.7090675,49.9118305 5.73749255,50.178251 5.88317092,50.4570631 L9.79294744,50.65887 C10.1900098,50.65887 10.6314864,50.2875631 10.4493884,50.118063 C10.3681105,50.0410577 10.3441269,49.8715577 10.3481242,49.7423305 C10.3681105,48.6443418 10.3721078,47.5463532 10.4329552,46.4523475 C10.4778134,45.6730013 10.5870722,44.8980806 10.6923337,44.127143 C10.7367479,43.800092 10.7975952,43.4610918 10.9437177,43.1703306 C11.2515077,42.5485354 11.255505,41.8824842 11.2435132,41.2283821 C11.2270799,40.3162682 11.129813,39.3997287 11.0569738,38.4871722 C11.044982,38.3420129 10.9677014,38.1968536 10.9597068,38.0512517 C10.9437177,37.8454618 10.8988595,37.6113481 10.9716986,37.433882 C11.3283442,36.5859391 11.409622,35.6937403 11.5024476,34.7975585 C11.5797282,34.03857 11.7618262,33.2915306 11.8835209,32.5369676 C11.9359296,32.2099166 11.9523628,31.8788825 11.9847851,31.5518315 C11.9967769,31.4186212 11.9767906,31.2690363 12.1548913,31.2287635 C12.3090083,31.1964567 12.4342562,31.3097518 12.4991008,31.5075756 C12.738493,32.2298317 12.9854356,32.9525304 13.2323782,33.6752291 C13.4353509,34.2846328 13.6498711,34.894479 13.8444051,35.5078656 C13.9576611,35.8751895 14.0185085,35.9482117 14.4075763,35.9561778 C14.9787421,35.9641438 15.5539052,35.9845016 16.125071,35.9482117 C16.5829808,35.9159049 16.935629,36.0407065 17.2678468,36.3518255 C17.9891324,37.0338087 18.7508348,37.6759617 19.4636817,38.3703367 C19.7270576,38.624808 19.9051583,38.9717742 20.111684,39.2824506 C20.5087464,39.9002628 20.9018115,40.5220581 21.2908793,41.1438534 C21.789206,41.9351487 22.4047859,42.6335067 23.0412405,43.3154899 C23.6323927,43.9452513 24.0578801,44.6843247 24.4509452,45.4512793 C24.7023292,45.9354387 24.8560022,46.4483645 24.9856914,46.9732394 C25.0301056,47.1427394 25.1273725,47.3042734 25.2286368,47.4494328 C25.3827538,47.6795634 25.4720262,47.9176601 25.4760235,48.2044383 C25.4840181,49.0603472 25.5204376,49.9162561 25.5284322,50.7757055 C25.5284322,51.0585007 25.4800208,51.3412958 25.455593,51.6236484 C25.427168,51.9869893 25.5124431,52.0839097 25.8770832,52.1002844 C25.9987779,52.1082504 26.1160312,52.1042674 26.237726,52.1042674 C26.6387856,52.0918758 26.6387856,52.0918758 26.7604804,51.7002111 C26.7884613,51.6116993 26.8048945,51.5023873 26.8657419,51.4541484 C26.9545701,51.3855517 27.0762649,51.3209381 27.1855237,51.3169551 C27.4329104,50.9536142 27.6132318,50.4212159 27.811763,49.9405969" id="Fill-1"></path>
                <path d="M9.70568692,58.9260836 C9.38296644,59.2821225 8.98716521,59.5501152 8.51827134,59.7300697 C8.04937747,59.9100241 7.53587994,60 6.97776335,60 C6.02478877,60 5.28444113,59.6991129 4.75669824,59.0973297 C4.22895534,58.4955465 3.95749454,57.6199748 3.94230769,56.4705882 L3.94230769,54.9496904 C3.94230769,53.7848239 4.19193773,52.8879675 4.69120529,52.2590944 C5.19047285,51.6302213 5.91848136,51.3157895 6.87525266,51.3157895 C7.77507328,51.3157895 8.45372528,51.5421804 8.91122901,51.994969 C9.36873275,52.4477577 9.6335494,53.1578899 9.70568692,54.125387 L8.07690583,54.125387 C8.0313453,53.5874586 7.92124232,53.2207827 7.74659359,53.0253483 C7.57194486,52.8299139 7.29858573,52.7321981 6.926508,52.7321981 C6.47469934,52.7321981 6.14628872,52.9005401 5.9412663,53.2372291 C5.73624388,53.5739181 5.62993755,54.1099034 5.62234413,54.8452012 L5.62234413,56.377709 C5.62234413,57.1478367 5.7352946,57.7080091 5.96119893,58.058243 C6.18710327,58.408477 6.55822625,58.5835913 7.07457901,58.5835913 C7.40489291,58.5835913 7.67255706,58.5158676 7.87757948,58.380418 L8.02565049,58.2759288 L8.02565049,56.7260062 L6.8524725,56.7260062 L6.8524725,55.4373065 L9.70568692,55.4373065 L9.70568692,58.9260836 Z M16.7366416,56.4183437 C16.7366416,57.5522503 16.4737233,58.4326594 15.9478787,59.0595975 C15.4220342,59.6865356 14.6921273,60 13.7581363,60 C12.827942,60 12.097086,59.6894381 11.5655464,59.068305 C11.0340068,58.4471718 10.7644443,57.577405 10.7568509,56.4589783 L10.7568509,55.0135449 C10.7568509,53.8525484 11.0207184,52.9460172 11.5484613,52.2939241 C12.0762042,51.6418311 12.8089585,51.3157895 13.7467462,51.3157895 C14.6693471,51.3157895 15.3964065,51.6360262 15.9279461,52.2765093 C16.4594857,52.9169924 16.7290482,53.8157837 16.7366416,54.9729102 L16.7366416,56.4183437 Z M15.0566052,55.001935 C15.0566052,54.2395473 14.9502988,53.6726025 14.737683,53.3010836 C14.5250671,52.9295647 14.1947582,52.743808 13.7467462,52.743808 C13.302531,52.743808 12.9741204,52.9227923 12.7615045,53.2807663 C12.5488887,53.6387402 12.4387857,54.1834329 12.4311923,54.9148607 L12.4311923,56.4183437 C12.4311923,57.1575114 12.5393969,57.7022041 12.7558095,58.0524381 C12.9722221,58.402672 13.3063277,58.5777864 13.7581363,58.5777864 C14.1947581,58.5777864 14.5193721,58.406542 14.7319879,58.064048 C14.9446038,57.721554 15.0528084,57.1904061 15.0566052,56.4705882 L15.0566052,55.001935 Z M20.452947,56.7956656 L19.6214714,56.7956656 L19.6214714,59.8839009 L17.94713,59.8839009 L17.94713,51.4318885 L20.6181031,51.4318885 C21.4571764,51.4318885 22.1054552,51.6534421 22.5629589,52.0965557 C23.0204626,52.5396694 23.2492111,53.1695006 23.2492111,53.9860681 C23.2492111,55.1083647 22.848664,55.8939606 22.0475579,56.3428793 L23.4997928,59.8026316 L23.4997928,59.8839009 L21.7001605,59.8839009 L20.452947,56.7956656 Z M19.6214714,55.373452 L20.5725428,55.373452 C20.9066534,55.373452 21.1572326,55.2602565 21.324288,55.0338622 C21.4913433,54.8074679 21.5748697,54.5046459 21.5748697,54.125387 C21.5748697,53.2778595 21.2502557,52.8541022 20.601018,52.8541022 L19.6214714,52.8541022 L19.6214714,55.373452 Z M28.3666327,58.1540248 L26.0829222,58.1540248 L25.6387091,59.8839009 L23.8675521,59.8839009 L26.4587947,51.4318885 L27.9907601,51.4318885 L30.5990879,59.8839009 L28.8108457,59.8839009 L28.3666327,58.1540248 Z M26.4474046,56.7318111 L27.9964552,56.7318111 L27.2219299,53.7190402 L26.4474046,56.7318111 Z M37.1801345,59.8839009 L35.5057931,59.8839009 L33.0569264,54.3401703 L33.0569264,59.8839009 L31.382585,59.8839009 L31.382585,51.4318885 L33.0569264,51.4318885 L35.5114882,56.9814241 L35.5114882,51.4318885 L37.1801345,51.4318885 L37.1801345,59.8839009 Z M44.1541388,57.0684985 C44.112375,58.0321256 43.8466092,58.7616074 43.3568334,59.2569659 C42.8670576,59.7523245 42.1760665,60 41.2838393,60 C40.3460515,60 39.6275346,59.6855682 39.1282671,59.056695 C38.6289995,58.4278219 38.3793695,57.5309656 38.3793695,56.3660991 L38.3793695,54.9438854 C38.3793695,53.7828889 38.637542,52.8879675 39.1538948,52.2590944 C39.6702475,51.6302213 40.3878152,51.3157895 41.3066194,51.3157895 C42.2102367,51.3157895 42.8964821,51.5731398 43.3653759,52.0878483 C43.8342698,52.6025568 44.1009848,53.3417134 44.1655289,54.3053406 L42.4854924,54.3053406 C42.4703056,53.7093623 42.380135,53.2981822 42.2149781,53.0717879 C42.0498211,52.8453936 41.7470379,52.7321981 41.3066194,52.7321981 C40.8586075,52.7321981 40.5415868,52.8918328 40.3555479,53.2111068 C40.1695091,53.5303809 40.0707961,54.0557239 40.0594059,54.7871517 L40.0594059,56.3835139 C40.0594059,57.2233014 40.1514748,57.799921 40.3356153,58.1133901 C40.5197558,58.4268592 40.8358273,58.5835913 41.2838393,58.5835913 C41.7242578,58.5835913 42.0279902,58.4742658 42.1950455,58.2556115 C42.3621008,58.0369571 42.4570171,57.6412567 42.4797974,57.0684985 L44.1541388,57.0684985 Z M51.0085473,59.8839009 L49.3399009,59.8839009 L49.3399009,56.2674149 L46.8682541,56.2674149 L46.8682541,59.8839009 L45.1939127,59.8839009 L45.1939127,51.4318885 L46.8682541,51.4318885 L46.8682541,54.8510062 L49.3399009,54.8510062 L49.3399009,51.4318885 L51.0085473,51.4318885 L51.0085473,59.8839009 Z M58.198963,56.4183437 C58.198963,57.5522503 57.9360447,58.4326594 57.4102002,59.0595975 C56.8843556,59.6865356 56.1544488,60 55.2204577,60 C54.2902634,60 53.5594074,59.6894381 53.0278678,59.068305 C52.4963282,58.4471718 52.2267657,57.577405 52.2191723,56.4589783 L52.2191723,55.0135449 C52.2191723,53.8525484 52.4830398,52.9460172 53.0107827,52.2939241 C53.5385256,51.6418311 54.2712799,51.3157895 55.2090677,51.3157895 C56.1316686,51.3157895 56.8587279,51.6360262 57.3902675,52.2765093 C57.9218071,52.9169924 58.1913696,53.8157837 58.198963,54.9729102 L58.198963,56.4183437 Z M56.5189266,55.001935 C56.5189266,54.2395473 56.4126203,53.6726025 56.2000044,53.3010836 C55.9873886,52.9295647 55.6570796,52.743808 55.2090677,52.743808 C54.7648524,52.743808 54.4364418,52.9227923 54.223826,53.2807663 C54.0112101,53.6387402 53.9011071,54.1834329 53.8935137,54.9148607 L53.8935137,56.4183437 C53.8935137,57.1575114 54.0017184,57.7022041 54.2181309,58.0524381 C54.4345435,58.402672 54.7686491,58.5777864 55.2204577,58.5777864 C55.6570796,58.5777864 55.9816935,58.406542 56.1943094,58.064048 C56.4069252,57.721554 56.5151299,57.1904061 56.5189266,56.4705882 L56.5189266,55.001935 Z M61.8531151,57.5619195 L63.2483996,51.4318885 L65.1163723,51.4318885 L62.724456,59.8839009 L60.9817741,59.8839009 L58.606943,51.4318885 L60.4635256,51.4318885 L61.8531151,57.5619195 Z M69.4080133,57.6664087 C69.4080133,57.3219797 69.3216394,57.0617269 69.1488891,56.8856424 C68.9761387,56.7095579 68.6619655,56.5267037 68.2063601,56.3370743 C67.3748803,56.0158653 66.7769072,55.6395145 66.4124229,55.2080108 C66.0479386,54.7765071 65.8656992,54.2666438 65.8656992,53.6784056 C65.8656992,52.9663277 66.1134309,52.3945455 66.6089018,51.9630418 C67.1043726,51.5315381 67.7336681,51.3157895 68.4968071,51.3157895 C69.0055665,51.3157895 69.4592667,51.425115 69.8579214,51.6437693 C70.2565761,51.8624237 70.5631559,52.1710506 70.7776701,52.5696594 C70.9921843,52.9682682 71.0994398,53.4210501 71.0994398,53.9280186 L69.4307935,53.9280186 C69.4307935,53.5332798 69.3482162,53.2323927 69.1830593,53.0253483 C69.0179023,52.8183039 68.7796623,52.7147833 68.4683319,52.7147833 C68.1759851,52.7147833 67.9481859,52.8028242 67.7849273,52.9789087 C67.6216687,53.1549931 67.5400406,53.3920264 67.5400406,53.6900155 C67.5400406,53.9222148 67.6311603,54.1321585 67.8134025,54.3198529 C67.9956446,54.5075474 68.3183603,54.7020114 68.7815591,54.9032508 C69.5902586,55.2012399 70.1777909,55.5669483 70.5441736,56.000387 C70.9105562,56.4338257 71.0937448,56.9852908 71.0937448,57.6547988 C71.0937448,58.3900966 70.8640472,58.9647812 70.4046451,59.37887 C69.945243,59.7929587 69.3206933,60 68.5309773,60 C67.995641,60 67.5077709,59.887772 67.0673524,59.6633127 C66.6269339,59.4388534 66.2823875,59.1176491 66.0337028,58.6996904 C65.7850182,58.2817317 65.6606778,57.7883155 65.6606778,57.2194272 L67.3407142,57.2194272 C67.3407142,57.7070458 67.4337323,58.0611444 67.6197711,58.2817337 C67.80581,58.5023231 68.1095424,58.6126161 68.5309773,58.6126161 C69.1156709,58.6126161 69.4080133,58.2972168 69.4080133,57.6664087 Z M74.5482151,56.621517 L73.8875906,57.4690402 L73.8875906,59.8839009 L72.2132492,59.8839009 L72.2132492,51.4318885 L73.8875906,51.4318885 L73.8875906,55.1180341 L74.4172292,54.2066563 L75.9605847,51.4318885 L78.0107987,51.4318885 L75.6359675,55.1470588 L78.050664,59.8839009 L76.0630954,59.8839009 L74.5482151,56.621517 Z M80.4230769,59.8839009 L78.7487355,59.8839009 L78.7487355,51.4318885 L80.4230769,51.4318885 L80.4230769,59.8839009 Z" id="GORANCHOVSKI"></path>
                <path d="M40.6046005,40.9692513 C40.6046005,40.3743286 40.4501521,39.924801 40.1412505,39.6206551 C39.8323489,39.3165092 39.2705638,39.0006701 38.4558784,38.6731283 C36.9690774,38.1183127 35.8998188,37.4682524 35.2480704,36.7229278 C34.5963221,35.9776032 34.2704528,35.0969302 34.2704528,34.0808824 C34.2704528,32.8509297 34.7134313,31.8633059 35.5994018,31.1179813 C36.4853722,30.3726567 37.6106396,30 38.9752378,30 C39.8849699,30 40.6962486,30.188835 41.4090984,30.5665107 C42.1219482,30.9441864 42.6701554,31.4772693 43.0537364,32.1657754 C43.4373175,32.8542815 43.6291052,33.6363593 43.6291052,34.5120321 L40.6453346,34.5120321 C40.6453346,33.8302105 40.4976751,33.3104964 40.2023516,32.9528743 C39.9070281,32.5952522 39.4810219,32.4164439 38.9243202,32.4164439 C38.4015637,32.4164439 37.9942271,32.5685145 37.7022981,32.8726604 C37.4103692,33.1768063 37.2644069,33.5862274 37.2644069,34.1009358 C37.2644069,34.5020074 37.4273415,34.8646374 37.7532157,35.1888369 C38.0790899,35.5130364 38.6561501,35.8489287 39.4844136,36.1965241 C40.9304803,36.7112325 41.9810693,37.3429107 42.6362122,38.0915775 C43.2913551,38.8402444 43.6189217,39.792775 43.6189217,40.9491979 C43.6189217,42.2192577 43.2081906,43.2118948 42.3867161,43.927139 C41.5652416,44.6423833 40.4484603,45 39.0363389,45 C38.0790835,45 37.2067042,44.8061517 36.4191749,44.4184492 C35.6316457,44.0307467 35.015549,43.4759394 34.5708665,42.7540107 C34.1261841,42.032082 33.9038462,41.1798177 33.9038462,40.1971925 L36.9079838,40.1971925 C36.9079838,41.0394427 37.0743129,41.6510676 37.4069761,42.0320856 C37.7396393,42.4131035 38.2827548,42.6036096 39.0363389,42.6036096 C40.0818519,42.6036096 40.6046005,42.058829 40.6046005,40.9692513 Z M48.5897868,42.3529412 L53.8444817,42.3529412 L53.8444817,44.7994652 L45.5958327,44.7994652 L45.5958327,30.2005348 L48.5897868,30.2005348 L48.5897868,42.3529412 Z M63.0213676,41.8114973 L58.9377772,41.8114973 L58.1434628,44.7994652 L54.9763889,44.7994652 L59.6098893,30.2005348 L62.3492555,30.2005348 L67.0133064,44.7994652 L63.815682,44.7994652 L63.0213676,41.8114973 Z M59.5895223,39.3549465 L62.359439,39.3549465 L60.9744806,34.1510695 L59.5895223,39.3549465 Z M71.6522377,40.7887701 L74.1471995,30.2005348 L77.4873931,30.2005348 L73.2103159,44.7994652 L70.0941596,44.7994652 L65.8476329,30.2005348 L69.1674595,30.2005348 L71.6522377,40.7887701 Z M82,44.7994652 L79.0060459,44.7994652 L79.0060459,30.2005348 L82,30.2005348 L82,44.7994652 Z" id="SLAVI"></path>
            </g>
        </g>
    </g>
</svg>